<?xml version="1.0" standalone="no"?><!DOCTYPE svg PUBLIC "-//W3C//DTD SVG 1.1//EN" "http://www.w3.org/Graphics/SVG/1.1/DTD/svg11.dtd"><svg t="1718152259049" class="icon" viewBox="0 0 1024 1024" version="1.1" xmlns="http://www.w3.org/2000/svg" p-id="15136" xmlns:xlink="http://www.w3.org/1999/xlink" width="200" height="200"><path d="M495.872 128a42.666667 42.666667 0 0 1 4.949333 85.034667L495.872 213.333333H256a42.666667 42.666667 0 0 0-42.368 37.674667L213.333333 256v512a42.666667 42.666667 0 0 0 37.674667 42.368L256 810.666667h256a42.666667 42.666667 0 0 1 4.992 85.034666L512 896H256a128 128 0 0 1-127.786667-120.490667L128 768V256a128 128 0 0 1 120.490667-127.786667L256 128h239.872z m160.128 116.48l3.882667 3.669333 221.013333 235.52 2.090667 2.389334 2.773333 3.925333 1.749333 2.986667 1.578667 3.370666c9.557333 14.677333 9.258667 34.005333-1.28 48.426667l-3.413333 4.096-213.76 227.072a42.666667 42.666667 0 0 1-65.578667-54.4l3.413333-4.138667 152.448-161.92H469.333333a42.666667 42.666667 0 0 1-4.992-84.992L469.333333 470.186667l281.813334-0.042667-153.472-163.626667a42.666667 42.666667 0 0 1 58.325333-62.037333z" fill="#090000" p-id="15137"></path></svg>