<?xml version="1.0" standalone="no"?><!DOCTYPE svg PUBLIC "-//W3C//DTD SVG 1.1//EN" "http://www.w3.org/Graphics/SVG/1.1/DTD/svg11.dtd"><svg t="1716859138929" class="icon" viewBox="0 0 1024 1024" version="1.1" xmlns="http://www.w3.org/2000/svg" p-id="12093" xmlns:xlink="http://www.w3.org/1999/xlink" width="200" height="200"><path d="M618.61 611.856l0 19.748c0 23.182-18.834 42.022-42.016 42.022l-125.048 0c-23.178 0-42.018-18.838-42.018-42.022l0-19.818c-119.752-16.178-213.764-58.824-284.634-89.708l-52.022-19.192L72.872 847.02c0 22.76 16.108 47.13 40.2 47.13l798.218 0c24.722 0 43.908-25.278 43.908-47.13L955.198 496l-51.948 26.078C832.376 552.962 738.368 595.608 618.61 611.856z" p-id="12094" fill="#090000"></path><path d="M409.458 559.348l0-32.786c0-23.182 18.84-42.022 42.018-42.022l125.048 0c23.178 0 42.018 18.84 42.018 42.022l0 32.786c156.238-22.478 285.478-92.792 326.656-113.308l51.948-28.706 0-48.346 0-68.14c0.07-45.73-33.896-78.926-80.604-78.926L692.58 221.922 692.58 159.036c0-57.988-62.048-105.188-138.382-105.188L470.16 53.848c-75.56 0-134.67 46.222-134.67 105.188l0 62.886L118.254 221.922c-48.952 0-87.4 34.736-87.4 78.926l0 68.14 0 52.526L72.872 445C114.05 465.586 253.29 537.008 409.458 559.348zM387.442 159.036c0-34.804 31.594-53.1 82.716-53.1l83.968 0c51.336 0 86.436 19.556 86.436 53.1l0 62.886-253.12 0L387.442 159.036 387.442 159.036z" p-id="12095" fill="#090000"></path><path d="M461.476 526.562l105.048 0 0 105.042-105.048 0 0-105.042Z" p-id="12096" fill="#090000"></path></svg>