<?xml version="1.0" standalone="no"?><!DOCTYPE svg PUBLIC "-//W3C//DTD SVG 1.1//EN" "http://www.w3.org/Graphics/SVG/1.1/DTD/svg11.dtd"><svg t="1718149731837" class="icon" viewBox="0 0 1024 1024" version="1.1" xmlns="http://www.w3.org/2000/svg" p-id="12428" xmlns:xlink="http://www.w3.org/1999/xlink" width="200" height="200"><path d="M512 896c-199.978667 0-362.666667-162.688-362.666667-362.666667C149.333333 333.354667 312.021333 170.666667 512 170.666667c199.978667 0 362.666667 162.688 362.666667 362.666666 0 199.978667-162.688 362.666667-362.666667 362.666667z m0-640c-152.917333 0-277.333333 124.416-277.333333 277.333333S359.082667 810.666667 512 810.666667s277.333333-124.416 277.333333-277.333334S664.917333 256 512 256z" fill="#ffffff" p-id="12429"></path><path d="M272 573.312c-33.877333 0-68.437333-6.528-100.309333-23.765333l40.533333-75.093334c65.493333 35.370667 166.528-7.466667 195.968-27.050666 13.312-8.874667 15.701333-13.824 15.744-13.866667a63.146667 63.146667 0 0 1-2.005333-7.552c-2.389333-9.984-5.973333-25.045333-1.749334-42.154667 5.205333-21.077333 17.493333-34.304 26.453334-43.989333 8.149333-8.789333 8.874667-10.197333 9.130666-13.482667 1.664-23.04-34.346667-45.781333-49.92-54.442666l41.642667-74.496c81.962667 45.824 96 98.816 93.397333 135.168-2.517333 33.792-20.778667 53.504-31.701333 65.28-1.578667 1.706667-3.541333 3.797333-4.949333 5.461333l0.682666 2.730667c8.106667 33.834667 8.618667 73.685333-49.322666 112.298666-27.818667 18.602667-103.765333 54.954667-183.594667 54.954667z" fill="#ffffff" p-id="12430"></path><path d="M165.888 829.909333c-11.904 0-23.381333-1.024-34.304-3.2-37.248-7.466667-66.090667-27.946667-83.498667-59.349333-57.557333-103.552 57.514667-233.984 131.882667-280.832l45.44 72.234667c-57.216 36.010667-126.037333 125.269333-102.741333 167.168 3.712 6.613333 9.642667 13.866667 25.685333 17.066666 54.229333 10.453333 191.914667-35.114667 401.237333-200.490666 147.072-116.224 235.349333-268.8 278.4-359.338667l-27.605333 7.381333-22.016-82.474666 188.074667-50.090667-25.002667 75.093333c-3.882667 11.562667-97.066667 285.312-338.944 476.373334-108.074667 85.376-300.586667 220.458667-436.608 220.458666zM597.12 857.6l-84.906667-8.490667c0.512-5.034667 13.354667-124.544 100.053334-198.784C697.898667 576.853333 806.101333 576 810.666667 576v85.333333c-0.64 0-81.749333 1.322667-142.933334 53.717334-59.989333 51.456-70.528 141.610667-70.613333 142.549333z" fill="#ffffff" p-id="12431"></path></svg>