<?xml version="1.0" standalone="no"?><!DOCTYPE svg PUBLIC "-//W3C//DTD SVG 1.1//EN" "http://www.w3.org/Graphics/SVG/1.1/DTD/svg11.dtd"><svg t="1716887345146" class="icon" viewBox="0 0 1024 1024" version="1.1" xmlns="http://www.w3.org/2000/svg" p-id="959" xmlns:xlink="http://www.w3.org/1999/xlink" width="200" height="200"><path d="M308.805818 57.832727h407.544243c22.535758 0 41.347879 0 56.707878 1.256728 16.027152 1.31103 31.069091 4.142545 45.296485 11.388121a116.030061 116.030061 0 0 1 50.703515 50.695757c7.245576 14.227394 10.077091 29.277091 11.388122 45.304243 1.256727 15.36 1.256727 34.172121 1.256727 56.707879v288.139636a31.643152 31.643152 0 0 1-63.278546 0V224.465455c0-24.149333-0.03103-40.354909-1.047272-52.836849-0.99297-12.109576-2.753939-17.904485-4.701091-21.721212a52.751515 52.751515 0 0 0-23.047758-23.047758c-3.816727-1.947152-9.611636-3.715879-21.721212-4.701091-12.489697-1.024-28.687515-1.047273-52.836848-1.047272H310.085818c-24.149333 0-40.354909 0.023273-52.836848 1.047272-12.109576 0.985212-17.904485 2.753939-21.721212 4.701091a52.736 52.736 0 0 0-23.047758 23.04c-1.939394 3.824485-3.715879 9.619394-4.701091 21.721212-1.024 12.489697-1.047273 28.70303-1.047273 52.844607v573.719272c0 24.149333 0.023273 40.362667 1.047273 52.844606 0.985212 12.109576 2.753939 17.896727 4.701091 21.721212a52.697212 52.697212 0 0 0 23.04 23.04c3.824485 1.947152 9.619394 3.715879 21.72897 4.708849 12.481939 1.016242 28.687515 1.039515 52.836848 1.039515h160.302546a31.643152 31.643152 0 0 1 0 63.278546h-161.590303c-22.528 0-41.340121 0-56.707879-1.24897-16.019394-1.31103-31.069091-4.142545-45.296485-11.395879a115.975758 115.975758 0 0 1-50.695758-50.695758c-7.245576-14.227394-10.084848-29.269333-11.388121-45.296484-1.256727-15.367758-1.256727-34.172121-1.256727-56.707879V223.185455c0-22.535758 0-41.347879 1.256727-56.707879 1.31103-16.027152 4.142545-31.076848 11.388121-45.304243a116.014545 116.014545 0 0 1 50.695758-50.695757c14.227394-7.245576 29.277091-10.084848 45.304242-11.388121 15.36-1.256727 34.172121-1.256727 56.707879-1.256728z" fill="#090000" p-id="960"></path><path d="M312.195879 258.234182a31.635394 31.635394 0 0 1 31.643151-31.643152h337.477818a31.635394 31.635394 0 1 1 0 63.278546H343.83903a31.635394 31.635394 0 0 1-31.643151-31.635394zM312.195879 426.961455a31.635394 31.635394 0 0 1 31.643151-31.643152h337.477818a31.635394 31.635394 0 1 1 0 63.278545H343.83903a31.635394 31.635394 0 0 1-31.643151-31.635393zM312.195879 595.712a31.635394 31.635394 0 0 1 31.643151-31.635394h210.928485a31.635394 31.635394 0 1 1 0 63.278546h-210.928485a31.635394 31.635394 0 0 1-31.643151-31.643152z" fill="#090000" p-id="961"></path><path d="M939.915636 727.427879l29.952-29.944243a42.007273 42.007273 0 0 0 0-59.485091l-29.952-29.944242a42.007273 42.007273 0 0 0-59.485091 0l-29.952 29.944242 89.437091 89.437091zM909.963636 757.387636l-89.437091-89.437091-223.573333 223.581091v89.437091h89.429333L909.963636 757.387636z" fill="#090000" p-id="962"></path></svg>