<?xml version="1.0" standalone="no"?><!DOCTYPE svg PUBLIC "-//W3C//DTD SVG 1.1//EN" "http://www.w3.org/Graphics/SVG/1.1/DTD/svg11.dtd"><svg t="1718065366751" class="icon" viewBox="0 0 1024 1024" version="1.1" xmlns="http://www.w3.org/2000/svg" p-id="11885" xmlns:xlink="http://www.w3.org/1999/xlink" width="200" height="200"><path d="M511.998194 64.00158c-247.423167 0-447.996613 200.573446-447.996614 447.996614S264.575027 959.99842 511.998194 959.99842s448.000226-200.577059 448.000226-448.000226S759.421361 64.00158 511.998194 64.00158zM865.90161 661.473692a382.654818 382.654818 0 1 1 22.35016-72.003133A383.930009 383.930009 0 0 1 865.90161 661.473692z" fill="#ed260d" p-id="11886"></path><path d="M383.821636 384.027545a31.970084 31.970084 0 0 0 31.970084-31.970085V288.059492a31.970084 31.970084 0 0 0-63.940169 0v63.997968a31.970084 31.970084 0 0 0 31.970085 31.970085zM639.943556 384.027545a31.970084 31.970084 0 0 0 31.970084-31.970085V288.059492a31.970084 31.970084 0 0 0-63.940169 0v63.997968a31.970084 31.970084 0 0 0 31.970085 31.970085zM799.999887 480.028109a31.970084 31.970084 0 0 0-31.970084 31.970085 256.027996 256.027996 0 1 1-512.059606 0 31.970084 31.970084 0 0 0-63.940169 0 319.968165 319.968165 0 1 0 639.939944 0 31.970084 31.970084 0 0 0-31.970085-31.970085z" fill="#ed260d" p-id="11887"></path></svg>